<svg width="54" height="58" viewBox="0 0 54 58" fill="none" xmlns="http://www.w3.org/2000/svg">
<path d="M45.4167 48.6667H8.58337L0.083374 57.1667V9C0.083374 4.325 3.90837 0.5 8.58337 0.5H45.4167C50.0917 0.5 53.9167 4.325 53.9167 9V40.1667C53.9167 44.8417 50.0917 48.6667 45.4167 48.6667Z" fill="#233C7B"/>
<path d="M24.1666 20.3333H29.8333V35.9166H24.1666V20.3333Z" fill="white"/>
<path d="M27 16.0833C28.5648 16.0833 29.8333 14.8148 29.8333 13.25C29.8333 11.6852 28.5648 10.4167 27 10.4167C25.4352 10.4167 24.1666 11.6852 24.1666 13.25C24.1666 14.8148 25.4352 16.0833 27 16.0833Z" fill="white"/>
</svg>
