<svg width="17" height="17" viewBox="0 0 17 17" fill="none" xmlns="http://www.w3.org/2000/svg">
<path d="M8.22875 0.0148749L8.44408 0C8.82668 1.62412e-05 9.19632 0.139491 9.48466 0.39263C9.77301 0.645769 9.96053 0.995448 10.0126 1.377L10.0273 1.59375V6.90413L15.3049 6.90625C15.6875 6.90627 16.0571 7.04574 16.3455 7.29888C16.6338 7.55202 16.8213 7.9017 16.8734 8.28325L16.8882 8.5C16.8881 8.88513 16.7496 9.25723 16.4981 9.54748C16.2466 9.83773 15.8993 10.0265 15.5202 10.0789L15.3049 10.0938L10.0273 10.0916V15.4062C10.0273 15.7914 9.88877 16.1635 9.6373 16.4537C9.38582 16.744 9.03845 16.9327 8.6594 16.9851L8.44408 17C8.06148 17 7.69183 16.8605 7.40349 16.6074C7.11515 16.3542 6.92762 16.0046 6.87559 15.623L6.86081 15.4062V10.0916L1.58326 10.0938C1.20067 10.0937 0.83102 9.95426 0.542678 9.70112C0.254337 9.44798 0.0668101 9.0983 0.0147771 8.71675L0 8.5C1.61343e-05 8.11487 0.138573 7.74277 0.390047 7.45252C0.641521 7.16227 0.9889 6.9735 1.36794 6.92112L1.58326 6.90625L6.86081 6.90413V1.59375C6.86083 1.20862 6.99939 0.836523 7.25086 0.546272C7.50234 0.256022 7.84971 0.0672526 8.22875 0.0148749L8.44408 0L8.22875 0.0148749Z" fill="white"/>
</svg>
