<svg width="104" height="74" viewBox="0 0 104 74" fill="none" xmlns="http://www.w3.org/2000/svg">
<path d="M88.1731 11.1666C88.1731 5.48325 83.5231 0.833252 77.8398 0.833252H62.3398V11.1666H77.8398V24.8583L59.8598 47.3333H41.6731V21.4999H21.0065C9.58813 21.4999 0.339798 30.7483 0.339798 42.1666V57.6666H10.6731C10.6731 66.2433 17.5965 73.1666 26.1731 73.1666C34.7498 73.1666 41.6731 66.2433 41.6731 57.6666H64.8198L88.1731 28.4749V11.1666ZM26.1731 62.8333C23.3315 62.8333 21.0065 60.5083 21.0065 57.6666H31.3398C31.3398 60.5083 29.0148 62.8333 26.1731 62.8333Z" fill="white"/>
<path d="M15.8398 6H41.6732V16.3333H15.8398V6ZM88.1732 42.1667C79.5965 42.1667 72.6732 49.09 72.6732 57.6667C72.6732 66.2433 79.5965 73.1667 88.1732 73.1667C96.7498 73.1667 103.673 66.2433 103.673 57.6667C103.673 49.09 96.7498 42.1667 88.1732 42.1667ZM88.1732 62.8333C85.3315 62.8333 83.0065 60.5083 83.0065 57.6667C83.0065 54.825 85.3315 52.5 88.1732 52.5C91.0148 52.5 93.3398 54.825 93.3398 57.6667C93.3398 60.5083 91.0148 62.8333 88.1732 62.8333Z" fill="white"/>
</svg>
