<svg width="492" height="481" viewBox="0 0 492 481" fill="none" xmlns="http://www.w3.org/2000/svg">
<path d="M180.212 409.119C146.101 400.172 111.216 404.36 90.3879 389.567C69.2704 374.881 62.3163 341.505 49.3619 309.664C36.0119 277.638 16.951 247.042 32.2246 229.594C47.1026 211.962 96.7109 207.664 120.82 185.668C145.218 163.566 144.513 123.951 160.987 94.5313C177.566 65.4024 210.929 46.2837 229.897 64.063C249.154 81.7365 253.514 135.832 283.117 160.268C312.72 184.703 367.277 179.584 405.58 198.202C443.7 217.217 465.565 259.969 451.707 292.057C438.139 324.039 389.032 344.96 354.823 371.638C320.509 398.024 301.277 429.77 274.612 434.907C248.237 439.937 214.323 418.066 180.212 409.119Z" fill="#FF5A81" fill-opacity="0.29"/>
</svg>
