<svg width="35" height="36" viewBox="0 0 35 36" fill="none" xmlns="http://www.w3.org/2000/svg">
<path d="M17.5 0.175476C7.83501 0.175476 0 8.1846 0 18.0644C0 27.9441 7.83501 35.9533 17.5 35.9533C27.165 35.9533 35 27.9441 35 18.0644C35 8.1846 27.165 0.175476 17.5 0.175476ZM8.6795 7.73326L11.7941 8.7334C12.2065 8.87183 12.4811 9.26324 12.529 9.66365L12.7042 11.4171L26.8076 13.0265C27.4131 13.1464 27.8387 13.7053 27.7539 14.2799L26.878 19.3243C26.7666 19.8519 26.3391 20.2136 25.8633 20.2196H13.3344L13.0887 21.6499H24.9875C25.6097 21.6723 26.0654 22.1566 26.0727 22.7221C26.0469 23.3672 25.5382 23.7895 24.9875 23.7965H11.8283C11.1646 23.7404 10.6773 23.2027 10.7794 22.5452L11.3391 19.3963L10.4633 10.5939L8.0493 9.80781C7.7693 9.7124 7.55912 9.53295 7.41913 9.27058C7.15423 8.70314 7.40165 8.07488 7.87415 7.80312C8.14383 7.65983 8.4072 7.64197 8.6795 7.73326ZM13.4219 24.4146C14.328 24.4146 15.0626 25.1654 15.0626 26.0916C15.0626 27.0178 14.328 27.7687 13.4219 27.7687C12.5159 27.7687 11.7813 27.0178 11.7813 26.0916C11.7813 25.1654 12.5159 24.4146 13.4219 24.4146ZM23.0521 24.4146C23.9581 24.4146 24.6927 25.1654 24.6927 26.0916C24.6927 27.0178 23.9581 27.7687 23.0521 27.7687C22.146 27.7687 21.4114 27.0178 21.4114 26.0916C21.4114 25.1654 22.146 24.4146 23.0521 24.4146Z" fill="#FF4571"/>
</svg>
