<svg width="55" height="55" viewBox="0 0 55 55" fill="none" xmlns="http://www.w3.org/2000/svg">
<path d="M51.569 11.2036C52.3329 11.2036 52.9907 11.4794 53.5424 12.0311C54.0941 12.5828 54.3699 13.1982 54.3699 13.8772V54.618L43.4208 43.7962H13.6292C12.8653 43.7962 12.2075 43.5203 11.6558 42.9686C11.1041 42.417 10.8282 41.8016 10.8282 41.1226V35.648H46.2217V11.2036H51.569ZM40.7472 27.4999C40.7472 28.2638 40.4714 28.9004 39.9197 29.4096C39.368 29.9189 38.7526 30.1735 38.0736 30.1735H10.8282L0.00646973 41.1226V3.05545C0.00646973 2.29156 0.282318 1.65498 0.834016 1.14572C1.38571 0.636466 2.00107 0.381836 2.68008 0.381836H38.0736C38.7526 0.381836 39.368 0.636466 39.9197 1.14572C40.4714 1.65498 40.7472 2.29156 40.7472 3.05545V27.4999Z" fill="#233C7B"/>
</svg>
