<svg width="18" height="21" viewBox="0 0 18 21" fill="none" xmlns="http://www.w3.org/2000/svg">
<path d="M9.19051 0.928574C10.0457 0.928573 10.8682 1.25727 11.4879 1.84668C12.1075 2.43608 12.4769 3.24111 12.5197 4.09524L12.5238 4.26191H16.6905C16.9029 4.26214 17.1072 4.34347 17.2617 4.48928C17.4161 4.63509 17.509 4.83437 17.5215 5.0464C17.5339 5.25844 17.4649 5.46722 17.3286 5.6301C17.1923 5.79298 16.9989 5.89765 16.788 5.92274L16.6905 5.92857H15.983L14.9997 18.0561C14.9362 18.8386 14.5806 19.5686 14.0034 20.1009C13.4262 20.6331 12.6698 20.9286 11.8847 20.9286H6.49634C5.71122 20.9286 4.95483 20.6331 4.37765 20.1009C3.80047 19.5686 3.44478 18.8386 3.38134 18.0561L2.39718 5.92857H1.69051C1.4864 5.92855 1.2894 5.85361 1.13687 5.71798C0.984339 5.58234 0.886892 5.39545 0.863011 5.19274L0.857178 5.09524C0.857205 4.89113 0.932141 4.69413 1.06777 4.5416C1.20341 4.38907 1.3903 4.29162 1.59301 4.26774L1.69051 4.26191H5.85718C5.85718 3.37785 6.20837 2.53001 6.83349 1.90488C7.45861 1.27976 8.30646 0.928574 9.19051 0.928574V0.928574ZM7.31551 8.63691C7.16448 8.63691 7.01856 8.69161 6.90474 8.79088C6.79091 8.89015 6.71688 9.02728 6.69634 9.17691L6.69051 9.26191V15.9286L6.69634 16.0136C6.71693 16.1632 6.79097 16.3003 6.90479 16.3995C7.01861 16.4987 7.16451 16.5534 7.31551 16.5534C7.46651 16.5534 7.61241 16.4987 7.72623 16.3995C7.84005 16.3003 7.91409 16.1632 7.93468 16.0136L7.94051 15.9286V9.26191L7.93468 9.17691C7.91414 9.02728 7.84011 8.89015 7.72629 8.79088C7.61246 8.69161 7.46654 8.63691 7.31551 8.63691ZM11.0655 8.63691C10.9145 8.63691 10.7686 8.69161 10.6547 8.79088C10.5409 8.89015 10.4669 9.02728 10.4463 9.17691L10.4405 9.26191V15.9286L10.4463 16.0136C10.4669 16.1632 10.541 16.3003 10.6548 16.3995C10.7686 16.4987 10.9145 16.5534 11.0655 16.5534C11.2165 16.5534 11.3624 16.4987 11.4762 16.3995C11.59 16.3003 11.6641 16.1632 11.6847 16.0136L11.6905 15.9286V9.26191L11.6847 9.17691C11.6641 9.02728 11.5901 8.89015 11.4763 8.79088C11.3625 8.69161 11.2165 8.63691 11.0655 8.63691ZM9.19051 2.59524C8.77003 2.59511 8.36504 2.75391 8.05672 3.03982C7.7484 3.32573 7.55955 3.71761 7.52801 4.13691L7.52384 4.26191H10.8572L10.853 4.13691C10.8215 3.71761 10.6326 3.32573 10.3243 3.03982C10.016 2.75391 9.61099 2.59511 9.19051 2.59524V2.59524Z" fill="#D93939"/>
</svg>
