<svg width="20" height="21" viewBox="0 0 20 21" fill="none" xmlns="http://www.w3.org/2000/svg">
<rect y="1" width="20" height="20" rx="10" fill="#F2408D"/>
<path d="M8.696 16.06C8.232 16.06 7.708 16.02 7.124 15.94C6.804 15.9 6.584 15.816 6.464 15.688C6.344 15.56 6.292 15.352 6.308 15.064C6.364 14.272 6.496 13.296 6.704 12.136C6.912 10.968 7.164 9.844 7.46 8.764C7.516 8.564 7.628 8.424 7.796 8.344C7.964 8.264 8.184 8.224 8.456 8.224C8.944 8.224 9.188 8.36 9.188 8.632C9.188 8.744 9.164 8.872 9.116 9.016C8.908 9.656 8.7 10.516 8.492 11.596C8.284 12.668 8.136 13.692 8.048 14.668C8.288 14.692 8.56 14.704 8.864 14.704C10.264 14.704 11.308 14.28 11.996 13.432C12.692 12.584 13.04 11.452 13.04 10.036C13.04 9.084 12.768 8.348 12.224 7.828C11.68 7.308 10.912 7.048 9.92 7.048C9.28 7.048 8.644 7.148 8.012 7.348C7.388 7.548 6.824 7.812 6.32 8.14C6.216 8.212 6.104 8.248 5.984 8.248C5.848 8.248 5.74 8.192 5.66 8.08C5.58 7.96 5.54 7.816 5.54 7.648C5.54 7.456 5.572 7.3 5.636 7.18C5.7 7.052 5.808 6.936 5.96 6.832C6.512 6.456 7.16 6.172 7.904 5.98C8.648 5.78 9.364 5.68 10.052 5.68C11.028 5.68 11.872 5.852 12.584 6.196C13.296 6.532 13.844 7.028 14.228 7.684C14.612 8.34 14.804 9.132 14.804 10.06C14.804 11.268 14.564 12.324 14.084 13.228C13.604 14.124 12.904 14.82 11.984 15.316C11.064 15.812 9.968 16.06 8.696 16.06Z" fill="white"/>
</svg>
