<svg width="84" height="84" viewBox="0 0 84 84" fill="none" xmlns="http://www.w3.org/2000/svg">
<path d="M42.0065 0.333252C47.4782 0.333252 52.8964 1.41099 57.9516 3.50494C63.0068 5.59888 67.6001 8.66803 71.4693 12.5371C75.3384 16.4062 78.4075 20.9995 80.5015 26.0548C82.5954 31.11 83.6731 36.5282 83.6731 41.9999C83.6731 53.0506 79.2833 63.6487 71.4693 71.4627C63.6552 79.2767 53.0572 83.6666 42.0065 83.6666C36.5347 83.6666 31.1166 82.5889 26.0613 80.4949C21.0061 78.401 16.4128 75.3318 12.5437 71.4627C4.72967 63.6487 0.339798 53.0506 0.339798 41.9999C0.339798 30.9492 4.72967 20.3512 12.5437 12.5371C20.3577 4.72312 30.9558 0.333252 42.0065 0.333252ZM25.3398 24.1249V38.0416L55.0898 41.9999L25.3398 45.9583V59.8749L67.0065 41.9999L25.3398 24.1249Z" fill="#FF5A81"/>
</svg>
