<svg width="60" height="56" viewBox="0 0 60 56" fill="none" xmlns="http://www.w3.org/2000/svg">
<path d="M37.569 0.5625C36.4086 0.5625 35.2958 1.02344 34.4754 1.84391C33.6549 2.66438 33.194 3.77718 33.194 4.9375V13.6875C33.194 14.8478 33.6549 15.9606 34.4754 16.7811C35.2958 17.6016 36.4086 18.0625 37.569 18.0625V24.625L45.444 18.0625H55.069C56.2293 18.0625 57.3421 17.6016 58.1626 16.7811C58.983 15.9606 59.444 14.8478 59.444 13.6875V4.9375C59.444 3.77718 58.983 2.66438 58.1626 1.84391C57.3421 1.02344 56.2293 0.5625 55.069 0.5625H37.569ZM17.8815 11.5C15.5608 11.5 13.3352 12.4219 11.6943 14.0628C10.0533 15.7038 9.13147 17.9294 9.13147 20.25C9.13147 22.5706 10.0533 24.7962 11.6943 26.4372C13.3352 28.0781 15.5608 29 17.8815 29C20.2021 29 22.4277 28.0781 24.0687 26.4372C25.7096 24.7962 26.6315 22.5706 26.6315 20.25C26.6315 17.9294 25.7096 15.7038 24.0687 14.0628C22.4277 12.4219 20.2021 11.5 17.8815 11.5ZM28.819 33.375H6.94397C5.20349 33.375 3.53429 34.0664 2.30358 35.2971C1.07287 36.5278 0.38147 38.197 0.38147 39.9375C0.38147 44.82 2.38959 48.7313 5.68397 51.3781C8.92584 53.9813 13.2746 55.25 17.8815 55.25C22.4883 55.25 26.8371 53.9813 30.079 51.3781C33.369 48.7313 35.3815 44.82 35.3815 39.9375C35.3815 38.197 34.6901 36.5278 33.4594 35.2971C32.2287 34.0664 30.5595 33.375 28.819 33.375Z" fill="#0B8FDA"/>
</svg>
