<svg width="21" height="21" viewBox="0 0 21 21" fill="none" xmlns="http://www.w3.org/2000/svg">
<path d="M2.625 0C1.92881 0 1.26113 0.276562 0.768845 0.768845C0.276562 1.26113 0 1.92881 0 2.625L0 18.375C0 19.0712 0.276562 19.7389 0.768845 20.2312C1.26113 20.7234 1.92881 21 2.625 21H18.375C19.0712 21 19.7389 20.7234 20.2312 20.2312C20.7234 19.7389 21 19.0712 21 18.375V2.625C21 1.92881 20.7234 1.26113 20.2312 0.768845C19.7389 0.276562 19.0712 0 18.375 0L2.625 0ZM3.28125 6.5625H17.7188C17.8928 6.5625 18.0597 6.63164 18.1828 6.75471C18.3059 6.87778 18.375 7.0447 18.375 7.21875C18.375 7.3928 18.3059 7.55972 18.1828 7.68279C18.0597 7.80586 17.8928 7.875 17.7188 7.875H3.28125C3.1072 7.875 2.94028 7.80586 2.81721 7.68279C2.69414 7.55972 2.625 7.3928 2.625 7.21875C2.625 7.0447 2.69414 6.87778 2.81721 6.75471C2.94028 6.63164 3.1072 6.5625 3.28125 6.5625ZM5.25 11.1562C5.25 10.9822 5.31914 10.8153 5.44221 10.6922C5.56528 10.5691 5.7322 10.5 5.90625 10.5H15.0938C15.2678 10.5 15.4347 10.5691 15.5578 10.6922C15.6809 10.8153 15.75 10.9822 15.75 11.1562C15.75 11.3303 15.6809 11.4972 15.5578 11.6203C15.4347 11.7434 15.2678 11.8125 15.0938 11.8125H5.90625C5.7322 11.8125 5.56528 11.7434 5.44221 11.6203C5.31914 11.4972 5.25 11.3303 5.25 11.1562ZM7.875 15.0938C7.875 14.9197 7.94414 14.7528 8.06721 14.6297C8.19028 14.5066 8.3572 14.4375 8.53125 14.4375H12.4688C12.6428 14.4375 12.8097 14.5066 12.9328 14.6297C13.0559 14.7528 13.125 14.9197 13.125 15.0938C13.125 15.2678 13.0559 15.4347 12.9328 15.5578C12.8097 15.6809 12.6428 15.75 12.4688 15.75H8.53125C8.3572 15.75 8.19028 15.6809 8.06721 15.5578C7.94414 15.4347 7.875 15.2678 7.875 15.0938Z" fill="#F2408D"/>
</svg>
