<svg width="53" height="78" viewBox="0 0 53 78" fill="none" xmlns="http://www.w3.org/2000/svg">
<path d="M23.6147 60.4499C24.1174 61.2268 25.001 61.7448 26.0065 61.7448C27.0119 61.7448 27.8955 61.2268 28.4135 60.4499L45.2018 34.521C47.4565 31.0323 48.7666 27.1932 48.7666 22.7448C48.7514 9.88699 38.651 -0.00012207 26.0065 -0.00012207C13.3619 -0.00012207 3.26154 9.88699 3.26154 22.7448C3.26154 27.1932 4.5717 31.0323 6.82639 34.521L23.6147 60.4499ZM26.0065 9.74988C33.1819 9.74988 39.0014 15.5694 39.0014 22.7448C39.0014 29.9202 33.1819 35.7397 26.0065 35.7397C18.8311 35.7397 13.0115 29.9202 13.0115 22.7448C13.0115 15.5694 18.8311 9.74988 26.0065 9.74988ZM42.6729 49.2831L26.0065 71.4948L9.34006 49.2831C3.64241 52.269 0.00138855 56.7327 0.00138855 61.7448C0.00138855 70.7178 11.6405 77.9999 26.0065 77.9999C40.3725 77.9999 52.0116 70.7178 52.0116 61.7448C52.0116 56.7327 48.3705 52.269 42.6729 49.2831Z" fill="white"/>
</svg>
