<svg width="40" height="40" viewBox="0 0 40 40" fill="none" xmlns="http://www.w3.org/2000/svg">
<path d="M20.0065 13.491C16.4225 13.491 13.4977 16.4158 13.4977 19.9997C13.4977 23.5837 16.4225 26.5085 20.0065 26.5085C23.5905 26.5085 26.5153 23.5837 26.5153 19.9997C26.5153 16.4158 23.5905 13.491 20.0065 13.491ZM39.528 19.9997C39.528 17.3044 39.5524 14.6335 39.401 11.9431C39.2497 8.8181 38.5368 6.04466 36.2516 3.75951C33.9616 1.46947 31.193 0.761462 28.068 0.610095C25.3727 0.458728 22.7018 0.483142 20.0114 0.483142C17.3161 0.483142 14.6452 0.458728 11.9547 0.610095C8.82973 0.761462 6.05629 1.47435 3.77114 3.75951C1.4811 6.04955 0.773089 8.8181 0.621722 11.9431C0.470355 14.6384 0.494769 17.3093 0.494769 19.9997C0.494769 22.6902 0.470355 25.366 0.621722 28.0564C0.773089 31.1814 1.48598 33.9548 3.77114 36.24C6.06118 38.53 8.82973 39.238 11.9547 39.3894C14.65 39.5408 17.3209 39.5163 20.0114 39.5163C22.7067 39.5163 25.3776 39.5408 28.068 39.3894C31.193 39.238 33.9664 38.5251 36.2516 36.24C38.5416 33.9499 39.2497 31.1814 39.401 28.0564C39.5573 25.366 39.528 22.6951 39.528 19.9997ZM20.0065 30.0144C14.4645 30.0144 9.99184 25.5417 9.99184 19.9997C9.99184 14.4578 14.4645 9.98509 20.0065 9.98509C25.5485 9.98509 30.0211 14.4578 30.0211 19.9997C30.0211 25.5417 25.5485 30.0144 20.0065 30.0144ZM30.4313 11.9138C29.1373 11.9138 28.0924 10.8689 28.0924 9.57494C28.0924 8.28099 29.1373 7.23607 30.4313 7.23607C31.7252 7.23607 32.7702 8.28099 32.7702 9.57494C32.7705 9.88219 32.7103 10.1865 32.5929 10.4704C32.4755 10.7544 32.3032 11.0124 32.086 11.2296C31.8687 11.4469 31.6107 11.6192 31.3268 11.7366C31.0429 11.854 30.7385 11.9142 30.4313 11.9138Z" fill="white"/>
</svg>
