<svg width="71" height="71" viewBox="0 0 71 71" fill="none" xmlns="http://www.w3.org/2000/svg">
<path d="M35.5 0C44.9152 0 53.9447 3.74017 60.6023 10.3977C67.2598 17.0553 71 26.0848 71 35.5C71 44.9152 67.2598 53.9447 60.6023 60.6023C53.9447 67.2598 44.9152 71 35.5 71C26.0848 71 17.0553 67.2598 10.3977 60.6023C3.74017 53.9447 0 44.9152 0 35.5C0 26.0848 3.74017 17.0553 10.3977 10.3977C17.0553 3.74017 26.0848 0 35.5 0ZM19.9688 33.2812C19.3803 33.2812 18.816 33.515 18.3999 33.9311C17.9838 34.3472 17.75 34.9116 17.75 35.5C17.75 36.0884 17.9838 36.6528 18.3999 37.0689C18.816 37.485 19.3803 37.7188 19.9688 37.7188H45.6752L36.1479 47.2416C35.9416 47.4479 35.7779 47.6928 35.6663 47.9623C35.5547 48.2319 35.4972 48.5208 35.4972 48.8125C35.4972 49.1042 35.5547 49.3931 35.6663 49.6627C35.7779 49.9322 35.9416 50.1771 36.1479 50.3834C36.3542 50.5897 36.5991 50.7533 36.8686 50.8649C37.1381 50.9766 37.427 51.034 37.7188 51.034C38.0105 51.034 38.2994 50.9766 38.5689 50.8649C38.8384 50.7533 39.0833 50.5897 39.2896 50.3834L52.6021 37.0709C52.8088 36.8648 52.9727 36.6199 53.0845 36.3504C53.1964 36.0808 53.254 35.7918 53.254 35.5C53.254 35.2082 53.1964 34.9192 53.0845 34.6496C52.9727 34.3801 52.8088 34.1352 52.6021 33.9291L39.2896 20.6166C39.0833 20.4103 38.8384 20.2467 38.5689 20.1351C38.2994 20.0234 38.0105 19.9659 37.7188 19.9659C37.427 19.9659 37.1381 20.0234 36.8686 20.1351C36.5991 20.2467 36.3542 20.4103 36.1479 20.6166C35.9416 20.8229 35.7779 21.0678 35.6663 21.3373C35.5547 21.6069 35.4972 21.8958 35.4972 22.1875C35.4972 22.4792 35.5547 22.7681 35.6663 23.0377C35.7779 23.3072 35.9416 23.5521 36.1479 23.7584L45.6752 33.2812H19.9688Z" fill="#FF5A81"/>
</svg>
