<svg width="49" height="48" viewBox="0 0 49 48" fill="none" xmlns="http://www.w3.org/2000/svg">
<path d="M24.0065 -0.000244141C10.7515 -0.000244141 0.00646973 10.7448 0.00646973 23.9998C0.00646973 37.2548 10.7515 47.9998 24.0065 47.9998C37.2615 47.9998 48.0065 37.2548 48.0065 23.9998C48.0065 10.7448 37.2615 -0.000244141 24.0065 -0.000244141ZM25.649 29.6873C24.109 29.5698 23.464 28.8073 22.259 28.0773C21.5965 31.5548 20.7865 34.8898 18.3865 36.6323C17.644 31.3723 19.4715 27.4273 20.3215 23.2348C18.874 20.7973 20.494 15.8948 23.549 17.0998C27.3065 18.5898 20.294 26.1623 25.0015 27.1098C29.9165 28.0948 31.924 18.5798 28.8765 15.4898C24.4715 11.0223 16.059 15.3873 17.094 21.7823C17.344 23.3448 18.9615 23.8198 17.739 25.9773C14.9215 25.3523 14.079 23.1298 14.189 20.1673C14.3615 15.3173 18.5465 11.9198 22.7415 11.4523C28.049 10.8623 33.029 13.3998 33.719 18.3948C34.4915 24.0298 31.3215 30.1273 25.649 29.6873Z" fill="white"/>
</svg>
