<svg width="400" height="581" viewBox="0 0 400 581" fill="none" xmlns="http://www.w3.org/2000/svg">
<path d="M124.675 35.934C157.408 57.8342 179.993 141.711 190.213 194.889C200.238 247.78 197.898 269.972 226.706 282.347C255.224 294.919 315.472 297.277 346.847 319.68C378.512 341.885 381.4 383.65 361.493 410.634C341.877 437.42 299.176 449.624 263.988 469.756C228.995 490.175 201.515 518.522 161.967 541.617C122.323 565.198 70.7061 583.041 57.6597 551.965C44.9039 520.692 70.6186 439.727 49.4577 396.087C28.3921 351.962 -39.7446 344.874 -49.8188 328.175C-59.6975 311.765 -11.7091 285.456 7.36548 244.742C26.6355 204.316 16.9918 149.485 33.1243 101.941C49.5475 54.1997 91.9423 14.0338 124.675 35.934Z" fill="#FF4571"/>
</svg>
