<svg width="509" height="539" viewBox="0 0 509 539" fill="none" xmlns="http://www.w3.org/2000/svg">
<path d="M405.523 103.838C443.629 107.152 495.756 117.091 527.356 149.246C558.835 181.774 569.666 236.89 555.547 284.717C541.103 332.438 501.505 372.39 460.271 401.903C418.915 431.789 376.043 450.864 332.227 461.789C288.614 473.193 243.937 476.822 221.682 446.881C199.305 417.314 199.351 354.179 173.109 318.814C146.867 283.449 94.4572 275.482 76.1463 248.888C57.8354 222.294 73.2979 176.969 86.1988 129.571C98.8961 81.6951 108.625 30.7893 138.544 16.1693C168.463 1.54928 218.249 23.1092 251.948 44.3897C285.769 65.297 303.504 85.9248 324.028 94.6644C344.552 103.404 367.864 100.256 405.523 103.838Z" fill="#FA88A3" fill-opacity="0.74"/>
</svg>
