<svg width="71" height="71" viewBox="0 0 71 71" fill="none" xmlns="http://www.w3.org/2000/svg">
<path d="M35.5 0C26.0848 0 17.0553 3.74017 10.3977 10.3977C3.74017 17.0553 0 26.0848 0 35.5C0 44.9152 3.74017 53.9447 10.3977 60.6023C17.0553 67.2598 26.0848 71 35.5 71C44.9152 71 53.9447 67.2598 60.6023 60.6023C67.2598 53.9447 71 44.9152 71 35.5C71 26.0848 67.2598 17.0553 60.6023 10.3977C53.9447 3.74017 44.9152 0 35.5 0ZM51.0312 33.2812C51.6197 33.2812 52.184 33.515 52.6001 33.9311C53.0162 34.3472 53.25 34.9116 53.25 35.5C53.25 36.0884 53.0162 36.6528 52.6001 37.0689C52.184 37.485 51.6197 37.7188 51.0312 37.7188H25.3248L34.8521 47.2416C35.0584 47.4479 35.2221 47.6928 35.3337 47.9623C35.4453 48.2319 35.5028 48.5208 35.5028 48.8125C35.5028 49.1042 35.4453 49.3931 35.3337 49.6627C35.2221 49.9322 35.0584 50.1771 34.8521 50.3834C34.6458 50.5897 34.4009 50.7533 34.1314 50.8649C33.8619 50.9766 33.573 51.034 33.2812 51.034C32.9895 51.034 32.7006 50.9766 32.4311 50.8649C32.1616 50.7533 31.9167 50.5897 31.7104 50.3834L18.3979 37.0709C18.1912 36.8648 18.0273 36.6199 17.9155 36.3504C17.8036 36.0808 17.746 35.7918 17.746 35.5C17.746 35.2082 17.8036 34.9192 17.9155 34.6496C18.0273 34.3801 18.1912 34.1352 18.3979 33.9291L31.7104 20.6166C31.9167 20.4103 32.1616 20.2467 32.4311 20.1351C32.7006 20.0234 32.9895 19.9659 33.2812 19.9659C33.573 19.9659 33.8619 20.0234 34.1314 20.1351C34.4009 20.2467 34.6458 20.4103 34.8521 20.6166C35.0584 20.8229 35.2221 21.0678 35.3337 21.3373C35.4453 21.6069 35.5028 21.8958 35.5028 22.1875C35.5028 22.4792 35.4453 22.7681 35.3337 23.0377C35.2221 23.3072 35.0584 23.5521 34.8521 23.7584L25.3248 33.2812H51.0312Z" fill="#FF5A81"/>
</svg>
