<svg width="47" height="38" viewBox="0 0 47 38" fill="none" xmlns="http://www.w3.org/2000/svg">
<path d="M41.2964 9.61483C41.3164 10.0198 41.3239 10.4298 41.3239 10.8348C41.3239 23.3098 31.8314 37.6898 14.4739 37.6898C9.14144 37.6898 4.18394 36.1273 0.00643921 33.4473C2.47738 33.7461 4.98298 33.5551 7.38003 32.885C9.77709 32.215 12.0186 31.0791 13.9764 29.5423C12.0075 29.5051 10.0994 28.8535 8.51889 27.6787C6.9384 26.5039 5.76454 24.8645 5.16144 22.9898C6.57659 23.2545 8.03304 23.1989 9.42394 22.8273C7.28797 22.3942 5.36744 21.2359 3.98781 19.5487C2.60817 17.8616 1.8543 15.7493 1.85394 13.5698V13.4523C3.16443 14.1813 4.6301 14.5867 6.12894 14.6348C4.12862 13.3013 2.71263 11.2546 2.16998 8.91259C1.62733 6.57055 1.99893 4.1097 3.20894 2.03233C5.57841 4.94848 8.53482 7.33358 11.8861 9.03271C15.2374 10.7318 18.9087 11.707 22.6614 11.8948C22.4991 11.1889 22.4177 10.4667 22.4189 9.74233C22.4189 8.50342 22.663 7.27666 23.1372 6.13209C23.6114 4.98752 24.3064 3.94758 25.1825 3.07166C26.0587 2.19574 27.0988 1.501 28.2435 1.02712C29.3882 0.553235 30.615 0.309499 31.8539 0.309827C33.1451 0.307721 34.4229 0.570927 35.6081 1.08312C36.7933 1.59531 37.8607 2.34555 38.7439 3.28733C40.8568 2.86907 42.8831 2.09471 44.7364 0.997327C44.0316 3.18284 42.5568 5.03788 40.5864 6.21733C42.4571 5.99556 44.284 5.49502 46.0064 4.73233C44.7411 6.62842 43.1458 8.28212 41.2964 9.61483Z" fill="white"/>
</svg>
