<svg width="1441" height="166" viewBox="0 0 1441 166" fill="none" xmlns="http://www.w3.org/2000/svg">
<path d="M-6.99353 101.891L41.2398 75.1457C89.4731 48.8009 185.94 -5.29089 282.406 0.4188C378.873 5.72781 475.34 69.8366 571.806 75.1457C668.273 80.8553 764.74 26.7635 861.206 11.0368C957.673 -5.29089 1054.14 16.7465 1150.61 21.755C1247.07 26.7635 1343.54 16.7465 1391.77 11.0368L1440.01 5.72782V166H1391.77C1343.54 166 1247.07 166 1150.61 166C1054.14 166 957.673 166 861.206 166C764.74 166 668.273 166 571.806 166C475.34 166 378.873 166 282.406 166C185.94 166 89.4731 166 41.2398 166H-6.99353V101.891Z" fill="white"/>
</svg>
