<svg width="49" height="48" viewBox="0 0 49 48" fill="none" xmlns="http://www.w3.org/2000/svg">
<path d="M28.014 23.5823L22.399 20.9623C21.909 20.7348 21.5065 20.9898 21.5065 21.5323V26.4673C21.5065 27.0098 21.909 27.2648 22.399 27.0373L28.0115 24.4173C28.504 24.1873 28.504 23.8123 28.014 23.5823ZM24.0065 -0.000244141C10.7515 -0.000244141 0.00646973 10.7448 0.00646973 23.9998C0.00646973 37.2548 10.7515 47.9998 24.0065 47.9998C37.2615 47.9998 48.0065 37.2548 48.0065 23.9998C48.0065 10.7448 37.2615 -0.000244141 24.0065 -0.000244141ZM24.0065 33.7498C11.7215 33.7498 11.5065 32.6423 11.5065 23.9998C11.5065 15.3573 11.7215 14.2498 24.0065 14.2498C36.2915 14.2498 36.5065 15.3573 36.5065 23.9998C36.5065 32.6423 36.2915 33.7498 24.0065 33.7498Z" fill="white"/>
</svg>
